<svg width="128" height="128" viewBox="0 0 128 128" fill="none" xmlns="http://www.w3.org/2000/svg">
  <defs>
    <linearGradient id="bg" x1="0" y1="0" x2="0" y2="128" gradientUnits="userSpaceOnUse">
      <stop offset="0" stop-color="#0B5CB8"/>
      <stop offset="1" stop-color="#2E9BEE"/>
    </linearGradient>
  </defs>

  <!-- background -->
  <rect x="0" y="0" width="128" height="128" rx="26" fill="url(#bg)"/>

  <!-- backlog sheet -->
  <rect x="20" y="22" width="68" height="84" rx="9" fill="#FFFFFF"/>

  <!-- backlog rows: hierarchy via indentation, colored type bullets -->
  <!-- row 1 (parent) -->
  <rect x="28" y="35" width="8" height="8" rx="2" fill="#3B82F6"/>
  <rect x="40" y="36" width="40" height="6" rx="3" fill="#C7D2DE"/>
  <!-- row 2 (child, indented) -->
  <rect x="37" y="51" width="8" height="8" rx="2" fill="#F59E0B"/>
  <rect x="49" y="52" width="31" height="6" rx="3" fill="#D6DEE8"/>
  <!-- row 3 (parent) -->
  <rect x="28" y="67" width="8" height="8" rx="2" fill="#3B82F6"/>
  <rect x="40" y="68" width="40" height="6" rx="3" fill="#C7D2DE"/>
  <!-- row 4 (child, indented) -->
  <rect x="37" y="83" width="8" height="8" rx="2" fill="#F59E0B"/>
  <rect x="49" y="84" width="31" height="6" rx="3" fill="#D6DEE8"/>

  <!-- download badge (export to file) -->
  <circle cx="92" cy="92" r="23" fill="#FFFFFF"/>
  <circle cx="92" cy="92" r="19" fill="#16A34A"/>
  <rect x="89" y="80" width="6" height="13" rx="2" fill="#FFFFFF"/>
  <path d="M83 90 H101 L92 104 Z" fill="#FFFFFF"/>
</svg>
